# xmcd
#
# Track frame offsets: 
#        182
#        21465
#        47925
#        73247
#        99515
#        122182
#        143485
#        159460
#        182772
#        207090
#        224282
#        250032
#        265510
#        290195
#        312637
#
# Disc length: 4393 seconds
#
# Revision: 8
# Processed by: cddbd v1.5.2PL0 Copyright (c) Steve Scherf et al.
# Submitted via: ExactAudioCopy v1.3
#
DISCID=e911270f
DTITLE=Various Artist - Verve's Grammy Winners
DYEAR=1994
DGENRE=Jazz
TTITLE0=Ella Fitzgerald - Mack The Knife
TTITLE1=Stan Getz and Charlie Byrd - Desafinado
TTITLE2=Shirley Horn - Here's To Life
TTITLE3=Bill Evans - A Sleepin' Bee
TTITLE4=Wes Montgomery - Impressions
TTITLE5=Ella Fitzgerald - I Ain't Got Nothing But The Blues
TTITLE6=Charlie Parker - Just Friends
TTITLE7=Bill Evans - Spartacus Love Theme
TTITLE8=Stan Getz and Joao Gilberto and Astrud Gilberto - The Girl From Ip
TTITLE8=anema
TTITLE9=Count Basie and His Orchestra - April In Paris
TTITLE10=Betty Carter - Look What I Got!
TTITLE11=Jimmy Smith - The Cat
TTITLE12=Count Basie and Joe Williams - Every Day I Have The Blues
TTITLE13=Joe Henderson - Lush Life
TTITLE14=Ella Fitzgerald - Cheek To Cheek
EXTD=YEAR: 1994
EXTT0=
EXTT1=
EXTT2=
EXTT3=
EXTT4=
EXTT5=
EXTT6=
EXTT7=
EXTT8=
EXTT9=
EXTT10=
EXTT11=
EXTT12=
EXTT13=
EXTT14=
PLAYORDER=
